<svg height="23" viewBox="0 0 36 23" width="36" xmlns="http://www.w3.org/2000/svg"><path d="m144.25 143a.25.25 0 0 0 -.25.25v1.75h32v-1.75a.25.25 0 0 0 -.25-.25zm-.25 18.75c0 .138.112.25.25.25h31.5a.25.25 0 0 0 .25-.25v-12.75h-32zm.25-20.75h31.5a2.25 2.25 0 0 1 2.25 2.25v18.5a2.25 2.25 0 0 1 -2.25 2.25h-31.5a2.25 2.25 0 0 1 -2.25-2.25v-18.5a2.25 2.25 0 0 1 2.25-2.25zm16.75 14a1 1 0 0 1 0-2h10a1 1 0 0 1 0 2zm0 4a1 1 0 0 1 0-2h6a1 1 0 0 1 0 2zm-7.647-7c2.002 0 3.647 1.554 3.647 3.5s-1.645 3.5-3.647 3.5c-.663 0-1.3-.17-1.853-.485a3.755 3.755 0 0 1 -1.853.485c-2.002 0-3.647-1.554-3.647-3.5s1.645-3.5 3.647-3.5c.663 0 1.3.17 1.853.485a3.755 3.755 0 0 1 1.853-.485zm-1.174 2.448-.679.63-.68-.63a1.72 1.72 0 0 0 -1.173-.448c-.922 0-1.647.685-1.647 1.5s.725 1.5 1.647 1.5c.45 0 .866-.164 1.174-.448l.679-.63.68.63a1.72 1.72 0 0 0 1.173.448c.922 0 1.647-.685 1.647-1.5s-.725-1.5-1.647-1.5c-.45 0-.866.164-1.174.448z" fill="#fff" transform="translate(-142 -141)"/></svg>