<svg height="32" viewBox="0 0 32 32" width="32" xmlns="http://www.w3.org/2000/svg"><path d="m11.46875 5c-3.550781 0-6.46875 2.914063-6.46875 6.46875v9.0625c0 3.550781 2.914063 6.46875 6.46875 6.46875h9.0625c3.550781 0 6.46875-2.914062 6.46875-6.46875v-9.0625c0-3.550781-2.914062-6.46875-6.46875-6.46875zm0 2h9.0625c2.472656 0 4.46875 1.996094 4.46875 4.46875v9.0625c0 2.472656-1.996094 4.46875-4.46875 4.46875h-9.0625c-2.472656 0-4.46875-1.996094-4.46875-4.46875v-9.0625c0-2.472656 1.996094-4.46875 4.46875-4.46875zm10.4375 2.1875c-.503906 0-.90625.402344-.90625.90625s.402344.90625.90625.90625.90625-.402344.90625-.90625-.402344-.90625-.90625-.90625zm-5.90625.8125c-3.300781 0-6 2.699219-6 6s2.699219 6 6 6 6-2.699219 6-6-2.699219-6-6-6zm0 2c2.222656 0 4 1.777344 4 4s-1.777344 4-4 4-4-1.777344-4-4 1.777344-4 4-4z"/></svg>