<svg xmlns="http://www.w3.org/2000/svg" xmlns:xlink="http://www.w3.org/1999/xlink" width="100" height="100" viewBox="0 0 100 100"><defs><path id="vmrza" d="M562 566a5 5 0 0 1 5-5h74a5 5 0 0 1 5 5v8h-84zm29 2a2 2 0 0 0 2 2h44a2 2 0 1 0 0-4h-44a2 2 0 0 0-2 2z"/><path id="vmrzb" d="M567 560h74a5 5 0 0 1 5 5v58a5 5 0 0 1-5 5h-74a5 5 0 0 1-5-5v-58a5 5 0 0 1 5-5zm0 2a3 3 0 0 0-3 3v58a3 3 0 0 0 3 3h74a3 3 0 0 0 3-3v-58a3 3 0 0 0-3-3z"/><path id="vmrzc" d="M569 568a2 2 0 1 1 4 0 2 2 0 0 1-4 0z"/><path id="vmrzd" d="M576 568a2 2 0 1 1 4 0 2 2 0 0 1-4 0z"/><path id="vmrze" d="M583 568a2 2 0 1 1 4 0 2 2 0 0 1-4 0z"/><path id="vmrzf" d="M586 586h36a4 4 0 1 1 0 8h-36a4 4 0 1 1 0-8zm0 11h36a4 4 0 1 1 0 8h-36a4 4 0 1 1 0-8zm0 2a2 2 0 1 0 0 4h36a2 2 0 1 0 0-4zm13-17a1 1 0 0 1 0-2h11a1 1 0 0 1 0 2zm-13 6a2 2 0 1 0 0 4h36a2 2 0 1 0 0-4z"/><path id="vmrzg" d="M590 614a4 4 0 0 1 4-4h21a4 4 0 1 1 0 8h-21a4 4 0 0 1-4-4z"/></defs><g><g transform="translate(-554 -544)"><g><use fill="#e6e6e6" xlink:href="#vmrza"/></g><g><use fill="#666" xlink:href="#vmrzb"/></g><g><use fill="#666" xlink:href="#vmrzc"/></g><g><use fill="#666" xlink:href="#vmrzd"/></g><g><use fill="#666" xlink:href="#vmrze"/></g><g><use fill="#666" xlink:href="#vmrzf"/></g><g><use fill="#cc0200" xlink:href="#vmrzg"/></g></g></g></svg>