<svg xmlns="http://www.w3.org/2000/svg" xmlns:xlink="http://www.w3.org/1999/xlink" width="100" height="100" viewBox="0 0 100 100"><defs><path id="xs92a" d="M249 635v-31h32v31z"/><path id="xs92b" d="M223 580a5 5 0 0 1 5-5h74a5 5 0 0 1 5 5v8h-84z"/><path id="xs92c" d="M228 573h74a5 5 0 0 1 5 5v36a5 5 0 0 1-5 5h-74a5 5 0 0 1-5-5v-36a5 5 0 0 1 5-5zm0 2a3 3 0 0 0-3 3v36a3 3 0 0 0 3 3h74a3 3 0 0 0 3-3v-36a3 3 0 0 0-3-3z"/><path id="xs92d" d="M246 606a1 1 0 0 1 0-2h38a1 1 0 0 1 0 2z"/><path id="xs92f" d="M249 552h23l9 9v14h-32zm2 2v19h28v-10h1v-2h-1.828L273 555.828V553h-2v1zm28 7.828l-.828-.828H273v-5.172L271.172 554H271v9h8z"/><path id="xs92g" d="M231 583a1 1 0 0 1 0-2h11a1 1 0 0 1 0 2z"/><path id="xs92h" d="M272.47 613.042c-3-2.5-7 1-7 1s-4-3.5-7-1c-5 5 7 13 7 13s12-8 7-13z"/><clipPath id="xs92e"><use fill="#fff" xlink:href="#xs92a"/></clipPath></defs><g><g transform="translate(-215 -544)"><g><use fill="#e6e6e6" xlink:href="#xs92b"/></g><g><use fill="#666" xlink:href="#xs92c"/></g><g><use fill="#666" xlink:href="#xs92d"/></g><g><use fill="#fff" xlink:href="#xs92a"/><use fill="#fff" fill-opacity="0" stroke="#666" stroke-miterlimit="50" stroke-width="4" clip-path="url(&quot;#xs92e&quot;)" xlink:href="#xs92a"/></g><g><use fill="#666" xlink:href="#xs92f"/></g><g><use fill="#666" xlink:href="#xs92g"/></g><g><use fill="#cc0200" xlink:href="#xs92h"/></g></g></g></svg>