<svg xmlns="http://www.w3.org/2000/svg" xmlns:xlink="http://www.w3.org/1999/xlink" width="100" height="100" viewBox="0 0 100 100"><defs><path id="d78za" d="M951 575a5 5 0 0 1 5-5h70a5 5 0 0 1 5 5v41a5 5 0 0 1-5 5h-70a5 5 0 0 1-5-5z"/><path id="d78zb" d="M951 590v-12h79v12z"/><path id="d78zd" d="M1008.667 582l1.11-6.664A15.931 15.931 0 0 1 1008 568c0-8.837 7.163-16 16-16s16 7.163 16 16-7.163 16-16 16a15.927 15.927 0 0 1-9.33-3z"/><path id="d78ze" d="M986 602a1 1 0 0 1 0-2h25a1 1 0 0 1 0 2z"/><path id="d78zf" d="M986 608a1 1 0 0 1 0-2h14a1 1 0 0 1 0 2z"/><path id="d78zg" d="M973.114 596.82c3.904 0 7.059 3.218 7.059 7.176 0 3.959-3.155 7.177-7.059 7.177a6.956 6.956 0 0 1-4.118-1.347 6.956 6.956 0 0 1-4.117 1.347c-3.904 0-7.059-3.218-7.059-7.177 0-3.958 3.155-7.176 7.059-7.176 1.504 0 2.934.481 4.117 1.347a6.956 6.956 0 0 1 4.118-1.347zm-3.286 3.724l-.832.831-.831-.831a4.627 4.627 0 0 0-3.286-1.371c-2.594 0-4.706 2.154-4.706 4.823 0 2.67 2.112 4.824 4.706 4.824a4.627 4.627 0 0 0 3.286-1.37l.831-.832.832.831a4.627 4.627 0 0 0 3.286 1.371c2.594 0 4.706-2.154 4.706-4.824 0-2.669-2.112-4.823-4.706-4.823a4.627 4.627 0 0 0-3.286 1.37z"/><path id="d78zh" d="M1019 574a1 1 0 0 1 0-2h2v-2h-2a1 1 0 0 1 0-2h2v-7a1 1 0 0 1 1-1h5c2.716 0 5 2.094 5 5s-2.284 5-5 5h-4v2h3a1 1 0 0 1 0 2h-3v2a1 1 0 0 1-2 0v-2zm4-6h4c1.648 0 3-1.24 3-3s-1.352-3-3-3h-4z"/><clipPath id="d78zc"><use fill="#fff" xlink:href="#d78za"/></clipPath></defs><g><g transform="translate(-945 -544)"><g><use fill="#e6e6e6" xlink:href="#d78zb"/></g><g><use fill="#fff" fill-opacity="0" stroke="#666" stroke-miterlimit="50" stroke-width="4" clip-path="url(&quot;#d78zc&quot;)" xlink:href="#d78za"/></g><g><use fill="#cc0200" xlink:href="#d78zd"/></g><g><use fill="#666" xlink:href="#d78ze"/></g><g><use fill="#666" xlink:href="#d78zf"/></g><g><use fill="#666" xlink:href="#d78zg"/></g><g><use fill="#fff" xlink:href="#d78zh"/></g></g></g></svg>