<svg enable-background="new 0 0 19.25 19.25" viewBox="0 0 19.25 19.25" xmlns="http://www.w3.org/2000/svg"><g fill="#030104"><path d="m19.006 2.97c-.191-.219-.466-.345-.756-.345h-13.819l-.195-1.164c-.08-.482-.497-.836-.986-.836h-2.25c-.553 0-1 .447-1 1s.447 1 1 1h1.403l1.86 11.164c.008.045.031.082.045.124.016.053.029.103.054.151.032.066.075.122.12.179.031.039.059.078.095.112.058.054.125.092.193.13.038.021.071.049.112.065.116.047.238.075.367.075h11.001c.553 0 1-.447 1-1s-.447-1-1-1h-10.153l-.166-1h11.319c.498 0 .92-.366.99-.858l1-7c.041-.288-.045-.579-.234-.797zm-1.909 1.655-.285 2h-3.562v-2zm-4.847 0v2h-3v-2zm0 3v2h-3v-2zm-4-3v2h-3c-.053 0-.101.015-.148.03l-.338-2.03zm-2.986 3h2.986v2h-2.653zm7.986 2v-2h3.418l-.285 2z"/><circle cx="6.75" cy="17.125" r="1.5"/><circle cx="15.75" cy="17.125" r="1.5"/></g></svg>